PathFileType	4	(X/Y/Z)	C:\Users\preethimanoharan\Documents\OpenSim\4.3\Models\Opensim Spine models\FBLS model Full body musculoskeletal model of lumar spine\Ha Pilot data\test_data_markers.trc
DataRate	CameraRate	NumFrames	NumMarkers	Units	OrigDataRate	OrigDataStartFrame	OrigNumFrames
100.000000	100.000000	4	41	mm	100.000000	927	1854
Frame#	Time	RFHD			LFHD			LBHD			RBHD			LSHO			LUPA			LELB			LFRM			LWRA			LWRB			LFIN			RSHO			RUPA			RELB			RFRM			RWRA			RWRB			RFIN			LTHI			LKNE			LTIB			LANK			LHEE			LTOE			LMT5			RTHI			RKNE			RTIB			RANK			RHEE			RTOE			RMT5			CLAV			STRN			LASI			RASI			C7			LPSI			RPSI			RBAK			T10			
		X1	Y1	Z1	X2	Y2	Z2	X3	Y3	Z3	X4	Y4	Z4	X5	Y5	Z5	X6	Y6	Z6	X7	Y7	Z7	X8	Y8	Z8	X9	Y9	Z9	X10	Y10	Z10	X11	Y11	Z11	X12	Y12	Z12	X13	Y13	Z13	X14	Y14	Z14	X15	Y15	Z15	X16	Y16	Z16	X17	Y17	Z17	X18	Y18	Z18	X19	Y19	Z19	X20	Y20	Z20	X21	Y21	Z21	X22	Y22	Z22	X23	Y23	Z23	X24	Y24	Z24	X25	Y25	Z25	X26	Y26	Z26	X27	Y27	Z27	X28	Y28	Z28	X29	Y29	Z29	X30	Y30	Z30	X31	Y31	Z31	X32	Y32	Z32	X33	Y33	Z33	X34	Y34	Z34	X35	Y35	Z35	X36	Y36	Z36	X37	Y37	Z37	X38	Y38	Z38	X39	Y39	Z39	X40	Y40	Z40	X41	Y41	Z41	

928	9.27	1115.728271484375	1680.731079101562	-738.6979980468749	983.4376831054688	1690.132568359375	-736.6307983398436	981.314453125	1677.802490234375	-595.6838989257811	1114.722534179688	1681.447998046875	-602.1128540039061	913.4558715820312	1471.73388671875	-589.1047363281249	753.7476806640625	1462.698486328125	-634.6233520507811	599.206298828125	1445.653930664062	-622.9453124999999	504.1195678710938	1475.90869140625	-641.9852905273436	376.7559204101562	1488.7099609375	-731.0536499023436	363.0756225585938	1483.176391601562	-663.0958251953124	290.9193115234375	1486.540649414062	-703.4931030273436	1165.700805664062	1470.464111328125	-604.1469726562499	1337.506591796875	1404.80419921875	-609.2199707031249	1461.609252929688	1417.518310546875	-630.4106445312499	1610.064819335938	1415.481323242188	-658.0370483398436	1701.461791992188	1430.002563476562	-741.5601196289061	1705.1396484375	1399.64501953125	-681.3153686523436	1778.494750976562	1419.284423828125	-711.3190307617186	847.093505859375	622.9130249023438	-644.654541015625	860.951904296875	473.9106750488282	-627.4546508789062	839.49462890625	261.6947326660157	-580.2952880859375	848.1397705078125	77.67441558837893	-566.4421997070312	893.8893432617188	40.47615051269534	-521.447021484375	874.969482421875	46.4365615844727	-700.292724609375	820.3892822265625	21.19976234436039	-667.7958984375	1216.349243164062	616.7239379882812	-650.1756591796875	1205.875732421875	476.7626342773438	-635.9340209960938	1233.869140625	339.5041198730469	-584.7009887695312	1196.126586914062	79.84890747070315	-558.6497192382812	1153.90576171875	48.91640090942386	-518.0932006835938	1171.708862304688	51.45660400390629	-682.9024658203125	1240.283203125	18.17631149291996	-648.6939086914062	1037.191040039062	1408.275268554688	-725.1501464843749	1033.5908203125	1236.678100585938	-754.8966674804686	909.4637451171875	958.5321044921875	-727.6359863281249	1155.391845703125	965.0984497070312	-714.7711791992186	1041.904663085938	1486.063354492188	-592.0882568359374	964.131103515625	1003.865173339844	-573.6579589843749	1085.065795898438	1000.020385742188	-568.2035522460936	1119.647583007812	1318.254272460938	-543.7466430664061	1033.52587890625	1111.653442382812	-576.7009887695311	
929	9.279999999999999	1115.911254882812	1681.497192382812	-737.7849731445311	983.4833984375	1690.188354492188	-736.6569213867186	981.3069458007812	1677.779052734375	-595.7201538085936	1114.718139648438	1681.450927734375	-602.0555419921874	912.8638916015625	1471.649780273438	-589.8255004882811	753.70166015625	1462.695068359375	-634.6845092773436	599.19482421875	1445.650024414062	-623.0007934570311	504.1032409667969	1475.9208984375	-641.9921264648436	376.7062683105469	1488.626586914062	-731.0537109374999	363.1105346679688	1483.100341796875	-663.3317871093749	290.9848022460938	1486.401000976562	-703.5920410156249	1165.72216796875	1470.486938476562	-604.1787719726561	1337.53564453125	1404.736328125	-609.2280273437499	1461.627197265625	1417.487670898438	-630.3496093749999	1610.127563476562	1415.398315429688	-657.9827880859374	1701.503540039062	1429.880493164062	-741.4307861328124	1705.145629882812	1399.5078125	-681.1919555664061	1778.571655273438	1419.142700195312	-711.1410522460936	847.1362915039062	622.8121948242188	-644.6018676757812	860.9935913085938	473.8690490722657	-627.49462890625	839.5057373046875	261.6783142089844	-580.2354125976562	848.1026000976562	77.76004028320315	-566.4592895507812	893.873046875	40.50744247436526	-521.477783203125	874.9161987304688	46.44183349609379	-700.3187255859375	820.256591796875	20.78699493408207	-668.4841918945312	1216.180541992188	615.8678588867188	-649.8046264648438	1205.917602539062	476.8785400390626	-635.8764038085938	1233.896728515625	339.5430603027344	-584.6571655273438	1196.1328125	79.86860656738284	-558.6229248046875	1153.4541015625	49.10983657836917	-517.73583984375	1171.667602539062	51.42129898071293	-682.876953125	1240.272216796875	18.15888023376469	-648.6692504882812	1037.195434570312	1408.2265625	-725.1503906249999	1033.66845703125	1236.698364257812	-754.9018554687499	909.429443359375	958.6708984375	-727.4891357421874	1155.404418945312	965.0593872070312	-714.6632690429686	1041.88427734375	1486.135131835938	-592.1369018554686	964.7218017578125	1004.011047363281	-574.1008300781249	1085.016357421875	1000.085510253906	-568.0977172851561	1119.627319335938	1318.337890625	-543.7394409179686	1033.466674804688	1111.705688476562	-576.6585083007811	
930	9.290000000000001	1115.985961914062	1681.504760742188	-737.7244262695311	983.5599975585938	1690.233642578125	-736.6474609374999	980.6348876953125	1678.427001953125	-595.5780639648436	1114.723388671875	1681.395629882812	-602.0890502929686	912.6646728515625	1471.557495117188	-590.0117187499999	753.7550659179688	1462.752319335938	-634.7636108398436	599.1854248046875	1445.6689453125	-622.9803466796874	504.1230773925781	1475.953491210938	-642.1024780273436	376.697021484375	1488.602661132812	-731.1007690429686	366.1869506835938	1481.388305664062	-665.7966308593749	294.1988220214844	1484.60888671875	-706.8538818359374	1165.697021484375	1470.533813476562	-604.1679687499999	1337.519287109375	1404.746826171875	-609.1829833984374	1461.647338867188	1417.466064453125	-630.3427734374999	1610.091796875	1415.342529296875	-657.8270263671874	1700.723022460938	1430.615844726562	-740.4763183593749	1704.836181640625	1399.33837890625	-681.3668823242186	1778.071044921875	1419.394409179688	-710.2593383789061	847.1370239257812	622.8121948242188	-644.5593872070312	860.9984130859375	473.8231811523438	-627.3790893554688	839.54736328125	261.6777954101563	-580.27587890625	848.108154296875	77.80830383300784	-566.45263671875	893.8823852539062	40.52177810668948	-521.4415283203125	875.239501953125	46.86550140380864	-699.9559326171875	820.279052734375	20.73304748535161	-668.4755859375	1216.22412109375	615.8548583984375	-649.7185668945312	1205.956909179688	476.8526916503907	-635.8734130859375	1233.885864257812	339.5302429199219	-584.6417236328125	1196.117919921875	79.8792419433594	-558.6141357421875	1153.926635742188	49.00331115722659	-518.1158447265625	1171.706665039062	51.45945358276371	-682.8674926757812	1240.221069335938	18.17858886718754	-648.6805419921875	1037.183715820312	1408.243896484375	-725.1569213867186	1033.623413085938	1236.677734375	-754.7909545898436	909.6927490234375	958.599365234375	-727.7282714843749	1155.454833984375	965.0599975585938	-714.6166381835936	1041.893920898438	1486.147338867188	-592.1456909179686	964.1658935546875	1003.954895019531	-573.5789184570311	1085.065551757812	1000.1220703125	-568.0681152343749	1119.6416015625	1318.390747070312	-543.7107543945311	1033.4873046875	1111.735595703125	-576.6353759765624	
931	9.300000000000001	1115.892822265625	1680.832397460938	-738.6311645507811	983.5474243164062	1690.266235351562	-736.6872558593749	981.2847900390625	1677.778930664062	-595.7955322265624	1114.6943359375	1681.434814453125	-602.0169067382811	912.9530639648438	1471.717895507812	-589.7646484374999	753.7360229492188	1462.815185546875	-634.8083496093749	599.150390625	1445.7021484375	-623.0534057617186	504.153564453125	1475.958129882812	-642.1180419921874	376.726318359375	1488.591552734375	-731.1201171874999	366.2798461914062	1481.333251953125	-666.1062011718749	294.1761474609375	1484.612182617188	-706.9005737304686	1165.739990234375	1470.551147460938	-604.2161865234374	1337.503662109375	1404.774169921875	-609.1714477539061	1461.668212890625	1417.429077148438	-630.2913208007811	1610.083984375	1415.32421875	-657.7478027343749	1701.55859375	1429.69580078125	-741.1841430664061	1704.872314453125	1399.264282226562	-681.2994995117186	1778.603149414062	1418.945556640625	-710.8958129882811	847.093017578125	622.8196411132812	-644.467529296875	861.0029296875	473.8214111328126	-627.33544921875	839.4876098632812	261.6003723144532	-580.2490234375	848.0804443359375	77.84175109863284	-566.4088745117188	893.87255859375	40.50425720214847	-521.5237426757812	875.1869506835938	46.89142227172856	-699.990966796875	820.218505859375	20.75718879699711	-668.4818115234375	1216.324584960938	615.867919921875	-649.635498046875	1205.917602539062	476.8515930175782	-635.7808837890625	1233.876098632812	339.5220642089844	-584.6156616210938	1196.10400390625	79.90055847167972	-558.6373901367188	1153.456665039062	49.14175796508792	-517.7564697265625	1171.707275390625	51.46145629882817	-682.90625	1240.344848632812	18.19842910766605	-648.647216796875	1037.153198242188	1408.146850585938	-725.1450195312499	1033.649536132812	1236.58447265625	-754.7896728515624	909.3359375	958.55859375	-727.2996826171874	1155.417602539062	965.0651245117188	-714.4949340820311	1041.924194335938	1486.176635742188	-592.2313842773436	964.6822509765625	1004.043762207031	-574.1459350585936	1085.029296875	1000.143798828125	-568.0346679687499	1119.635986328125	1318.424194335938	-543.7026367187499	1033.463989257812	1111.659545898438	-576.5941162109374	
